<?xml version="1.0" encoding="UTF-8" standalone="no"?>
<svg
   xmlns:dc="http://purl.org/dc/elements/1.1/"
   xmlns:cc="http://creativecommons.org/ns#"
   xmlns:rdf="http://www.w3.org/1999/02/22-rdf-syntax-ns#"
   xmlns:svg="http://www.w3.org/2000/svg"
   xmlns="http://www.w3.org/2000/svg"
   xmlns:xlink="http://www.w3.org/1999/xlink"
   id="svg6304"
   version="1.1"
   viewBox="0 0 21.695833 21.695833"
   height="21.695833mm"
   width="21.695833mm">
  <defs
     id="defs6298">
    <radialGradient
       gradientTransform="matrix(1.5789899,0,0,1.5789899,-360.7073,329.12157)"
       gradientUnits="userSpaceOnUse"
       r="10.847916"
       fy="138.77914"
       fx="149.52991"
       cy="138.77914"
       cx="149.52991"
       id="radialGradient5773-9"
       xlink:href="#linearGradient5771" />
    <linearGradient
       id="linearGradient5771">
      <stop
         id="stop5767"
         offset="0"
         style="stop-color:#ffffff;stop-opacity:1" />
      <stop
         style="stop-color:#ffffff;stop-opacity:1"
         offset="0.60000002"
         id="stop5777" />
      <stop
         id="stop5769"
         offset="1"
         style="stop-color:#c6c6c6;stop-opacity:1" />
    </linearGradient>
    <linearGradient
       y2="98.186211"
       x2="59.804405"
       y1="98.186211"
       x1="-169.77898"
       gradientTransform="matrix(0.06850263,0,0,0.06850263,-120.83393,541.52782)"
       gradientUnits="userSpaceOnUse"
       id="linearGradient4806-3"
       xlink:href="#linearGradient4773" />
    <linearGradient
       id="linearGradient4773">
      <stop
         id="stop4769"
         offset="0"
         style="stop-color:#473088;stop-opacity:1" />
      <stop
         id="stop4771"
         offset="1"
         style="stop-color:#a21670;stop-opacity:1" />
    </linearGradient>
  </defs>
  <metadata
     id="metadata6301">
    <rdf:RDF>
      <cc:Work
         rdf:about="">
        <dc:format>image/svg+xml</dc:format>
        <dc:type
           rdf:resource="http://purl.org/dc/dcmitype/StillImage" />
        <dc:title></dc:title>
      </cc:Work>
    </rdf:RDF>
  </metadata>
  <g
     transform="translate(-106.45601,-114.24122)"
     id="layer1">
    <g
       transform="translate(46.584411,-407.49542)"
       id="g9460">
      <g
         id="g9321"
         transform="translate(195.32057,-15.667902)">
        <rect
           style="display:inline;opacity:1;vector-effect:none;fill:url(#radialGradient5773-9);fill-opacity:1;fill-rule:nonzero;stroke:#dddddd;stroke-width:0.5291667;stroke-linecap:butt;stroke-linejoin:miter;stroke-miterlimit:4;stroke-dasharray:none;stroke-dashoffset:0;stroke-opacity:1;paint-order:stroke fill markers"
           id="rect5420-7"
           width="21.166666"
           height="21.166666"
           x="-135.18439"
           y="537.66913" />
        <path
           d="m -116.99681,545.24515 c -0.0206,-0.0274 -0.0411,-0.048 -0.0616,-0.0754 -0.007,-0.007 -0.0137,-0.0206 -0.0206,-0.0274 -0.0342,-0.0342 -0.0616,-0.0685 -0.0959,-0.10275 -0.0206,-0.0206 -0.0479,-0.0411 -0.0685,-0.0616 -0.0206,-0.0206 -0.041,-0.0343 -0.0685,-0.048 -0.0411,-0.0274 -0.0822,-0.0548 -0.12329,-0.0822 -0.0137,-0.007 -0.0274,-0.0137 -0.0411,-0.0206 -0.0206,-0.0137 -0.048,-0.0275 -0.0685,-0.0411 -0.0274,-0.0137 -0.0548,-0.0206 -0.0822,-0.0342 -0.007,0 -0.0206,-0.007 -0.0274,-0.007 -0.0548,-0.0206 -0.10274,-0.0342 -0.15755,-0.048 -0.0137,-0.007 -0.0342,-0.007 -0.048,-0.0137 -0.0411,-0.007 -0.0822,-0.0137 -0.12331,-0.0206 -0.0342,-0.007 -0.0616,-0.007 -0.0959,-0.007 -0.0137,0 -0.0275,0 -0.048,0 -0.11646,0 -0.22606,0.007 -0.34251,0.0343 -0.0959,0.0206 -0.23291,0.048 -0.42472,0.1781 -0.18495,0.1233 -0.39047,0.0959 -0.50692,0.0274 l -1.53445,-0.93163 c -0.15071,-0.0891 -0.23977,-0.25347 -0.22607,-0.42471 0,-0.0275 0,-0.0548 0,-0.0822 0,-0.089 -0.0137,-0.17125 -0.0274,-0.2603 -0.0959,-0.48638 -0.51377,-0.86314 -1.02755,-0.9248 -0.007,0 -0.007,0 -0.0137,0 -0.0274,0 -0.0548,0 -0.0822,-0.007 -0.0137,0 -0.0274,0 -0.0411,0 v 0 0 0 c -0.0616,0 -0.11645,0.007 -0.17811,0.0137 -0.0137,0 -0.0274,0.007 -0.041,0.007 -0.048,0.007 -0.0959,0.0206 -0.14386,0.0342 -0.0206,0.007 -0.048,0.0137 -0.0685,0.0274 -0.0274,0.007 -0.048,0.0206 -0.0685,0.0343 -0.0479,0.0206 -0.10276,0.0479 -0.14386,0.0822 -0.007,0 -0.007,0.007 -0.0137,0.007 -0.21236,0.14386 -0.36991,0.34252 -0.45212,0.58914 -0.007,0.0137 -0.0137,0.0342 -0.0206,0.048 0,0.007 -0.007,0.0206 -0.007,0.0274 -0.007,0.0206 -0.0137,0.0343 -0.0206,0.0548 -0.048,0.17811 -0.17125,0.30141 -0.36991,0.3562 l -1.77422,0.46583 c -0.20551,0.0548 -0.42472,-0.0206 -0.54117,-0.19865 -0.30827,-0.45898 -0.77408,-0.80834 -1.3358,-0.96589 -0.007,0 -0.0137,-0.007 -0.0275,-0.007 -0.007,0 -0.0137,0 -0.0206,-0.007 -0.0411,-0.0137 -0.0891,-0.0206 -0.13015,-0.0274 -0.0137,0 -0.0274,-0.007 -0.0411,-0.007 -0.0137,0 -0.0274,-0.007 -0.048,-0.007 -0.0616,-0.007 -0.1233,-0.0206 -0.18495,-0.0206 -0.0342,0 -0.0685,0 -0.10275,-0.007 -0.0343,0 -0.0685,0 -0.0959,-0.007 -0.23291,0 -0.47952,0.0342 -0.72612,0.11646 -0.74669,0.23975 -1.45911,1.12344 -1.55502,1.90437 -0.0754,0.61652 0.0891,1.1988 0.41787,1.65091 0.14385,0.19866 0.14385,0.46582 0,0.66448 l -0.24661,0.33567 c -0.15071,0.21921 -0.30142,0.29456 -0.58913,0.26715 -0.28086,-0.0274 -0.58227,-0.007 -0.90423,0.16441 -0.30141,0.17125 -0.52747,0.45897 -0.62337,0.79463 -0.32197,1.1577 0.84258,2.18524 2.02768,1.58241 0.18496,-0.0959 0.33566,-0.23976 0.43841,-0.41787 0.30141,-0.52061 0.26716,-1.02753 0.0548,-1.418 -0.0754,-0.13701 -0.0616,-0.36306 0.0343,-0.48637 l 0.28771,-0.39046 c 0.17125,-0.23291 0.35622,-0.32196 0.62338,-0.26032 0.274,0.10277 0.58227,0.15756 0.90423,0.14387 0.65762,-0.0206 1.26045,-0.33567 1.67832,-0.82204 0.19865,-0.23291 0.45211,-0.23291 0.65762,-0.10275 l 0.84259,0.47951 c 0.19865,0.10276 0.28086,0.34252 0.2192,0.55488 -0.1096,0.39046 -0.0206,0.91794 -0.0137,0.93848 0.0343,0.21921 -0.0548,0.38362 -0.22605,0.50007 l -1.07549,0.74669 c -0.26717,0.13015 -0.40417,0.0411 -0.76039,-0.11646 -0.15755,-0.0685 -0.31511,-0.12331 -0.47952,-0.15756 -0.0274,-0.007 -0.0548,-0.007 -0.0754,-0.0137 -0.048,-0.007 -0.0959,-0.0137 -0.13701,-0.0206 -0.19181,-0.0206 -0.39047,-0.007 -0.59597,0.0411 -0.63707,0.14386 -1.16455,0.64392 -1.3358,1.27415 -0.17811,0.65762 0.007,1.281 0.39046,1.71942 0.007,0.007 0.0137,0.0206 0.0274,0.0274 0.0206,0.0274 0.048,0.0479 0.0685,0.0685 0.0342,0.0274 0.0616,0.0616 0.0959,0.0891 0.0138,0.0137 0.0274,0.0206 0.0411,0.0342 0.0685,0.0548 0.14386,0.1096 0.21921,0.15756 0.0411,0.0206 0.0822,0.0411 0.12331,0.0616 0.007,0.007 0.0206,0.007 0.0274,0.0137 0.67817,0.32196 1.47281,0.20551 2.01397,-0.28086 0.15071,-0.13016 0.36992,-0.15071 0.54802,-0.0548 l 0.80148,0.42472 c 0.11646,0.0616 0.18497,0.18496 0.19181,0.31511 0.0137,0.32881 0.18496,0.63708 0.48637,0.81518 0.56857,0.33566 1.3358,0.048 1.50021,-0.65763 0.0754,-0.30825 -0.0206,-0.64392 -0.2329,-0.87682 -0.36307,-0.38362 -0.8837,-0.41787 -1.26731,-0.18496 -0.11645,0.0685 -0.26031,0.089 -0.38361,0.0206 l -0.69188,-0.36306 c -0.26716,-0.14386 -0.37676,-0.34937 -0.34936,-0.56173 0.0342,-0.2329 0.0137,-0.46581 -0.0411,-0.69188 -0.0343,-0.137 -0.0343,-0.28771 0.0411,-0.40416 0.0411,-0.0616 0.0891,-0.11646 0.15755,-0.16441 l 0.94534,-0.65763 c 0.30141,-0.22605 0.52063,-0.21235 0.69872,-0.10274 0.14386,0.0959 0.30141,0.17125 0.47268,0.21921 0.007,0 0.0137,0.007 0.0206,0.007 0.0274,0.007 0.0548,0.0206 0.0754,0.0274 0.0206,0.007 0.0411,0.007 0.0616,0.0138 0.0274,0.007 0.0548,0.007 0.0822,0.0137 0.0342,0.007 0.0685,0.0137 0.0959,0.0137 0.30142,0.0274 0.62338,-0.0137 0.94535,-0.15756 0.27401,-0.12331 0.51377,-0.32197 0.67817,-0.58228 0.22605,-0.36307 0.30142,-0.72613 0.30142,-1.06179 0,-0.13701 0.0959,-0.33566 0.28085,-0.41101 l 1.06864,-0.42472 c 0.40417,-0.17811 0.52747,-0.11646 0.74668,0.0548 0.14386,0.11645 0.21237,0.25345 0.13701,0.46581 l -0.1918,0.56173 c -0.0343,0.10275 -0.13016,0.18495 -0.26033,0.20551 -0.37675,0.0548 -0.68501,0.33566 -0.78777,0.77408 0,0.0137 -0.007,0.0206 -0.007,0.0342 0,0.007 0,0.0137 0,0.0206 -0.007,0.0548 -0.0137,0.1096 -0.0137,0.15755 0,0.0137 0,0.0206 0,0.0342 0,0.0343 0.007,0.0616 0.007,0.0959 0,0.007 0,0.007 0,0.0137 0.0548,0.50691 0.47951,0.90424 1.00013,0.90424 0.55488,0 1.00699,-0.45212 1.00699,-1.007 0,-0.0137 -0.007,-0.0274 -0.007,-0.0411 -0.007,-0.23976 -0.10961,-0.46581 -0.27401,-0.67817 -0.048,-0.0685 -0.0959,-0.1644 -0.0548,-0.30826 l 0.20551,-0.61652 c 0.0548,-0.15756 0.17125,-0.23291 0.29456,-0.23977 0.17126,-0.0137 0.24661,-0.0343 0.39046,-0.0959 0.0138,-0.007 0.27402,-0.13015 0.41787,-0.25346 v 0 c 0.0411,-0.0342 0.0822,-0.0754 0.11645,-0.11646 0.0206,-0.0206 0.0411,-0.0411 0.0548,-0.0616 0.007,-0.007 0.0137,-0.0206 0.0206,-0.0274 0.14385,-0.18496 0.23291,-0.39047 0.27401,-0.60967 0,-0.0137 0.007,-0.0342 0.007,-0.048 0.007,-0.0274 0.007,-0.048 0.007,-0.0754 0.0616,-0.35621 -0.0206,-0.70557 -0.23976,-1.01384 z m -2.7675,1.13029 -1.1714,0.47266 c -0.41786,0.15756 -0.58227,0.0822 -0.73982,-0.0754 -0.13017,-0.13015 -0.26717,-0.23976 -0.43157,-0.32197 -0.0137,-0.007 -0.0206,-0.0137 -0.0342,-0.0206 -0.0685,-0.0342 -0.14386,-0.0685 -0.21922,-0.0959 -0.0137,-0.007 -0.0206,-0.007 -0.0342,-0.0137 -0.0822,-0.0274 -0.1644,-0.048 -0.25347,-0.0616 -0.007,0 -0.0137,-0.007 -0.0206,-0.007 -0.0137,0 -0.0343,0 -0.0479,-0.007 -0.0685,-0.007 -0.13701,-0.0137 -0.21236,-0.0137 -0.0343,0 -0.0685,0 -0.10275,0 -0.0616,0 -0.11646,0.007 -0.17811,0.0206 -0.0342,0.007 -0.0616,0.007 -0.0959,0.0137 -0.007,0 -0.0137,0 -0.0137,0 -0.21236,0.0342 -0.36992,0.10961 -0.52062,0.19867 -0.19867,0.1233 -0.39732,0.1233 -0.60968,0 l -1.12343,-0.63708 c -0.33567,-0.15756 -0.26717,-0.45211 -0.26717,-0.67818 0,-0.2603 0.0206,-0.39046 0.26717,-0.48637 l 1.90437,-0.50006 c 0.10274,-0.0274 0.31511,-0.0342 0.49321,0.15756 v 0 c 0.21236,0.19865 0.52062,0.33565 0.83573,0.33565 0.21921,0 0.41102,-0.0548 0.58913,-0.15755 -0.0137,0.007 0,0 0,0 0.1507,-0.0822 0.34251,-0.0754 0.48636,0.0206 l 1.54132,0.93164 c 0.1096,0.0616 0.1644,0.16441 0.1644,0.30141 0,0 -0.007,0.17126 -0.0137,0.32197 0,0.1507 -0.0822,0.25345 -0.1918,0.3014 z"
           style="display:inline;fill:url(#linearGradient4806-3);fill-opacity:1;fill-rule:evenodd;stroke-width:0.26458329"
           id="path12-0" />
      </g>
    </g>
  </g>
</svg>
